<?xml version="1.0" encoding="UTF-8"?>
<svg id="uuid-081d8546-460d-423c-8607-f90ddbaffb32" data-name="Ebene 1" xmlns="http://www.w3.org/2000/svg" xmlns:xlink="http://www.w3.org/1999/xlink" viewBox="0 0 121.1 71.5">
  <defs>
    <linearGradient id="uuid-ebd14af6-4921-4fe8-8c13-7e92143aefe6" data-name="Unbenannter Verlauf 8" x1="60.4" y1="29" x2="60.4" y2="15.8" gradientUnits="userSpaceOnUse">
      <stop offset="0" stop-color="#f0f"/>
      <stop offset="1" stop-color="#f7931e"/>
    </linearGradient>
  </defs>
  <g>
    <path d="M72.6,25.3v3.7s-12.1-9.5-12.1-9.5l-12.3,9.5v-3.5s12.3-9.6,12.3-9.6l12.1,9.5Z" style="fill: url(#uuid-ebd14af6-4921-4fe8-8c13-7e92143aefe6);"/>
    <path d="M40.1,33.1h2.6v10.2h-2.6v-1.2c-.8,1-1.9,1.5-3.3,1.5s-2.5-.5-3.5-1.6c-1-1-1.5-2.3-1.5-3.8s.5-2.8,1.5-3.8c1-1,2.1-1.6,3.5-1.6s2.5,.5,3.3,1.5v-1.2Zm-4.9,7.2c.5,.5,1.2,.8,2,.8s1.5-.3,2-.8c.5-.5,.8-1.2,.8-2.1s-.3-1.5-.8-2.1c-.5-.5-1.2-.8-2-.8s-1.5,.3-2,.8c-.5,.5-.8,1.2-.8,2.1s.3,1.5,.8,2.1Z" style="fill: #fff;"/>
    <path d="M47.8,34.8c.2-.7,.7-1.1,1.2-1.5s1.2-.5,1.9-.5v2.9c-.8,0-1.5,0-2.2,.5s-1,1.1-1,2.1v4.9h-2.6v-10.2h2.6v1.8Z" style="fill: #fff;"/>
    <path d="M59.8,33.1h2.6v10.2h-2.6v-1.2c-.8,1-1.9,1.5-3.3,1.5s-2.5-.5-3.5-1.6c-1-1-1.5-2.3-1.5-3.8s.5-2.8,1.5-3.8c1-1,2.1-1.6,3.5-1.6s2.5,.5,3.3,1.5v-1.2Zm-4.9,7.2c.5,.5,1.2,.8,2,.8s1.5-.3,2-.8c.5-.5,.8-1.2,.8-2.1s-.3-1.5-.8-2.1c-.5-.5-1.2-.8-2-.8s-1.5,.3-2,.8c-.5,.5-.8,1.2-.8,2.1s.3,1.5,.8,2.1Z" style="fill: #fff;"/>
    <polygon points="67.5 33.1 64.9 33.1 64.9 43.3 67.5 41.2 67.5 33.1" style="fill: #fff;"/>
    <path d="M74.3,39.6c.4,.2,.5,.4,.5,.7,0,.6-.5,.9-1.4,.9s-.7,0-1-.2l-2.1,1.6c.8,.6,1.8,1,3.1,1s2.2-.3,2.9-.8,1.2-1.4,1.2-2.4-.2-1.3-.5-1.7c-.2-.2-.4-.4-.6-.6l-2.1,1.7s0,0,0,0Z" style="fill: #fff;"/>
    <path d="M72.8,36.6c-.4-.2-.5-.4-.5-.7s.1-.5,.3-.6c.2-.2,.5-.2,.8-.2,.5,0,.9,.2,1.2,.5l2-1.5c-.3-.3-.6-.5-1-.7-.7-.4-1.4-.6-2.3-.6s-2,.3-2.8,.9c-.7,.6-1.1,1.4-1.1,2.4s.2,1.2,.5,1.7c.3,.3,.6,.6,.9,.8l2.1-1.7c-.1,0-.3,0-.4-.2Z" style="fill: #fff;"/>
    <path d="M81.3,37.2h5.2c-.1-.7-.5-1.2-.9-1.6-.5-.3-1-.5-1.6-.5s-1.3,.2-1.8,.5c-.5,.4-.8,.9-.9,1.5Zm0,2c.4,1.3,1.3,1.9,2.9,1.9s1.8-.3,2.3-1l2.1,1.2c-1,1.5-2.5,2.2-4.5,2.2s-3-.5-4.1-1.5c-1-1-1.5-2.3-1.5-3.9s.5-2.8,1.5-3.9c1-1,2.3-1.5,3.9-1.5s2.7,.5,3.7,1.6,1.5,2.3,1.5,3.8,0,.7-.1,1.1h-7.7Z" style="fill: #fff;"/>
  </g>
  <g>
    <path d="M51.4,55.5c-.9,0-1.7-.3-2.3-.9-.6-.6-.9-1.4-.9-2.3s.3-1.6,.9-2.3c.6-.6,1.4-.9,2.3-.9s1.1,.1,1.6,.4c.5,.3,.8,.7,1.1,1.1l-1.3,.8c-.1-.2-.3-.4-.5-.6-.2-.1-.5-.2-.8-.2-.5,0-.8,.2-1.2,.5-.3,.3-.5,.7-.5,1.2s.2,.9,.5,1.2c.3,.3,.7,.5,1.2,.5s.6,0,.8-.2c.2-.1,.4-.3,.5-.6l1.3,.8c-.3,.5-.6,.8-1.1,1.1-.5,.3-1,.4-1.6,.4Z" style="fill: #fff;"/>
    <path d="M60,54.6c-.6,.6-1.4,.9-2.3,.9s-1.6-.3-2.2-.9c-.6-.6-.9-1.4-.9-2.2s.3-1.6,.9-2.2c.6-.6,1.4-.9,2.2-.9s1.6,.3,2.3,.9c.6,.6,.9,1.4,.9,2.2s-.3,1.6-.9,2.2Zm-3.4-1.1c.3,.3,.7,.5,1.2,.5s.9-.2,1.2-.5,.5-.7,.5-1.2-.2-.9-.5-1.2-.7-.5-1.2-.5-.9,.2-1.2,.5c-.3,.3-.5,.7-.5,1.2s.2,.9,.5,1.2Z" style="fill: #fff;"/>
    <path d="M63.5,50.4c.1-.4,.4-.7,.7-.9s.7-.3,1.1-.3v1.7c-.5,0-.9,0-1.3,.3-.4,.2-.6,.7-.6,1.2v2.9h-1.5v-6h1.5v1Z" style="fill: #fff;"/>
    <path d="M67.3,53c.2,.8,.8,1.1,1.7,1.1s1-.2,1.3-.6l1.2,.7c-.6,.9-1.5,1.3-2.6,1.3s-1.8-.3-2.4-.9-.9-1.4-.9-2.3,.3-1.7,.9-2.3c.6-.6,1.4-.9,2.3-.9s1.6,.3,2.2,.9c.6,.6,.9,1.4,.9,2.3s0,.4,0,.6h-4.5Zm0-1.2h3.1c0-.4-.3-.7-.5-.9-.3-.2-.6-.3-.9-.3s-.8,.1-1,.3c-.3,.2-.5,.5-.5,.9Z" style="fill: #fff;"/>
  </g>
</svg>