<?xml version="1.0" encoding="utf-8"?>
<!-- Generator: Adobe Illustrator 28.0.0, SVG Export Plug-In . SVG Version: 6.00 Build 0)  -->
<svg version="1.1" id="uuid-081d8546-460d-423c-8607-f90ddbaffb32"
	 xmlns="http://www.w3.org/2000/svg" xmlns:xlink="http://www.w3.org/1999/xlink" x="0px" y="0px" viewBox="0 0 121.1 71.5"
	 style="enable-background:new 0 0 121.1 71.5;" xml:space="preserve">
<style type="text/css">
	.st0{fill:url(#SVGID_1_);}
	.st1{fill:#FFFFFF;}
</style>
<g>
	
		<linearGradient id="SVGID_1_" gradientUnits="userSpaceOnUse" x1="60.46" y1="50.3046" x2="60.46" y2="74.054" gradientTransform="matrix(1 0 0 -1 0 74)">
		<stop  offset="0" style="stop-color:#FF00FF"/>
		<stop  offset="1" style="stop-color:#F7931E"/>
	</linearGradient>
	<path class="st0" d="M82.4,17v6.7L60.6,6.6L38.5,23.7v-6.3L60.6,0.1l21.8,17.1V17z"/>
	<path class="st1" d="M23.9,31.1h4.7v18.4h-4.7v-2.2C22.5,49.1,20.5,50,18,50s-4.5-0.9-6.3-2.9C9.9,45.3,9,42.9,9,40.2
		c0-2.7,0.9-5,2.7-6.8s3.8-2.9,6.3-2.9s4.5,0.9,5.9,2.7C23.9,33.2,23.9,31.1,23.9,31.1z M15.1,44c0.9,0.9,2.2,1.4,3.6,1.4
		c1.4,0,2.7-0.5,3.6-1.4c0.9-0.9,1.4-2.2,1.4-3.8c0-1.6-0.5-2.7-1.4-3.8c-0.9-0.9-2.2-1.4-3.6-1.4c-1.4,0-2.7,0.5-3.6,1.4
		c-0.9,0.9-1.4,2.2-1.4,3.8C13.7,41.9,14.2,42.9,15.1,44z"/>
	<path class="st1" d="M37.8,34.1c0.4-1.3,1.3-2,2.2-2.7s2.2-0.9,3.4-0.9v5.2c-1.4,0-2.7,0-4,0.9c-1.3,0.9-1.8,2-1.8,3.8v8.8h-4.7
		V30.9h4.7v3.2H37.8z"/>
	<path class="st1" d="M59.4,31.1h4.7v18.4h-4.7v-2.2C57.9,49.1,56,50,53.4,50s-4.5-0.9-6.3-2.9c-1.8-1.8-2.7-4.1-2.7-6.8
		c0-2.7,0.9-5,2.7-6.8s3.8-2.9,6.3-2.9s4.5,0.9,5.9,2.7C59.4,33.2,59.4,31.1,59.4,31.1z M50.6,44c0.9,0.9,2.2,1.4,3.6,1.4
		c1.4,0,2.7-0.5,3.6-1.4s1.4-2.2,1.4-3.8c0-1.6-0.5-2.7-1.4-3.8c-0.9-0.9-2.2-1.4-3.6-1.4c-1.4,0-2.7,0.5-3.6,1.4
		c-0.9,0.9-1.4,2.2-1.4,3.8C49.1,41.9,49.7,42.9,50.6,44z"/>
	<polygon class="st1" points="73.2,31.1 68.6,31.1 68.6,49.4 73.2,45.6 	"/>
	<path class="st1" d="M85.5,42.8c0.7,0.4,0.9,0.7,0.9,1.3c0,1.1-0.9,1.6-2.5,1.6s-1.3,0-1.8-0.4l-3.8,2.9c1.4,1.1,3.2,1.8,5.6,1.8
		s4-0.5,5.2-1.4c1.3-0.9,2.2-2.5,2.2-4.3s-0.4-2.3-0.9-3.1c-0.4-0.4-0.7-0.7-1.1-1.1l-3.8,3.1l0,0V42.8z"/>
	<path class="st1" d="M82.8,37.4c-0.7-0.4-0.9-0.7-0.9-1.3s0.2-0.9,0.5-1.1c0.4-0.4,0.9-0.4,1.4-0.4c0.9,0,1.6,0.4,2.2,0.9l3.6-2.7
		c-0.5-0.5-1.1-0.9-1.8-1.3c-1.3-0.7-2.5-1.1-4.1-1.1s-3.6,0.5-5,1.6c-1.3,1.1-2,2.5-2,4.3c0,1.8,0.4,2.2,0.9,3.1
		c0.5,0.5,1.1,1.1,1.6,1.4l3.8-3.1c-0.2,0-0.5,0-0.7-0.4L82.8,37.4z"/>
	<path class="st1" d="M98.1,38.4h9.4c-0.2-1.3-0.9-2.2-1.6-2.9c-0.9-0.5-1.8-0.9-2.9-0.9c-1.1,0-2.3,0.4-3.2,0.9
		c-0.9,0.7-1.4,1.6-1.6,2.7L98.1,38.4z M98.1,42c0.7,2.3,2.3,3.4,5.2,3.4c2.9,0,3.2-0.5,4.1-1.8l3.8,2.2c-1.8,2.7-4.5,4-8.1,4
		c-3.6,0-5.4-0.9-7.4-2.7c-1.8-1.8-2.7-4.1-2.7-7s0.9-5,2.7-7c1.8-1.8,4.1-2.7,7-2.7s4.9,0.9,6.7,2.9s2.7,4.1,2.7,6.8
		c0,2.7,0,1.3-0.2,2C111.9,42,98.1,42,98.1,42z"/>
</g>
<g>
	<path class="st1" d="M44.3,71.4c-1.6,0-3.1-0.5-4.1-1.6c-1.1-1.1-1.6-2.5-1.6-4.1c0-1.6,0.5-2.9,1.6-4.1c1.1-1.1,2.5-1.6,4.1-1.6
		c1.6,0,2,0.2,2.9,0.7c0.9,0.5,1.4,1.3,2,2L46.8,64c-0.2-0.4-0.5-0.7-0.9-1.1c-0.4-0.2-0.9-0.4-1.4-0.4c-0.9,0-1.4,0.4-2.2,0.9
		c-0.5,0.5-0.9,1.3-0.9,2.2s0.4,1.6,0.9,2.2s1.3,0.9,2.2,0.9c0.9,0,1.1,0,1.4-0.4c0.4-0.2,0.7-0.5,0.9-1.1l2.3,1.4
		c-0.5,0.9-1.1,1.4-2,2S45.3,71.4,44.3,71.4z"/>
	<path class="st1" d="M59.7,69.8c-1.1,1.1-2.5,1.6-4.1,1.6c-1.6,0-2.9-0.5-4-1.6c-1.1-1.1-1.6-2.5-1.6-4s0.5-2.9,1.6-4
		c1.1-1.1,2.5-1.6,4-1.6c1.4,0,2.9,0.5,4.1,1.6c1.1,1.1,1.6,2.5,1.6,4S60.8,68.7,59.7,69.8z M53.6,67.8c0.5,0.5,1.3,0.9,2.2,0.9
		c0.9,0,1.6-0.4,2.2-0.9s0.9-1.3,0.9-2.2s-0.4-1.6-0.9-2.2s-1.3-0.9-2.2-0.9c-0.9,0-1.6,0.4-2.2,0.9s-0.9,1.3-0.9,2.2
		S53.1,67.2,53.6,67.8z"/>
	<path class="st1" d="M66,62.2c0.2-0.7,0.7-1.3,1.3-1.6s1.3-0.5,2-0.5v3.1c-0.9,0-1.6,0-2.3,0.5c-0.7,0.4-1.1,1.3-1.1,2.2V71h-2.7
		V60.2h2.7V62L66,62.2z"/>
	<path class="st1" d="M72.9,66.9c0.4,1.4,1.4,2,3.1,2c1.6,0,1.8-0.4,2.3-1.1l2.2,1.3c-1.1,1.6-2.7,2.3-4.7,2.3s-3.2-0.5-4.3-1.6
		s-1.6-2.5-1.6-4.1c0-1.6,0.5-3.1,1.6-4.1c1.1-1.1,2.5-1.6,4.1-1.6s2.9,0.5,4,1.6c1.1,1.1,1.6,2.5,1.6,4.1c0,1.6,0,0.7,0,1.1h-8.1
		L72.9,66.9z M72.9,64.7h5.6c0-0.7-0.5-1.3-0.9-1.6c-0.5-0.4-1.1-0.5-1.6-0.5s-1.4,0.2-1.8,0.5c-0.5,0.4-0.9,0.9-0.9,1.6H72.9z"/>
</g>
</svg>
